<svg width="50" height="50" viewBox="0 0 50 50" fill="none" xmlns="http://www.w3.org/2000/svg">
<path fill-rule="evenodd" clip-rule="evenodd" d="M17.4494 41.1356C17.3219 41.1266 17.1807 41.1177 17.0244 41.1123C16.1019 41.0713 14.8582 41.0713 13.1245 41.0713C11.3896 41.0713 10.1459 41.0713 9.22468 41.1123C9.06844 41.1195 8.92719 41.1266 8.7997 41.1356C8.95738 42.6128 9.48034 43.9604 10.2738 44.9342C11.0672 45.9079 12.0786 46.4433 13.1245 46.4433C14.1705 46.4433 15.1819 45.9079 15.9753 44.9342C16.7688 43.9604 17.2917 42.6128 17.4494 41.1356ZM13.1245 49.9998C14.0274 49.9998 14.9213 49.7458 15.7554 49.2522C16.5895 48.7586 17.3474 48.0352 17.9857 47.1232C18.6241 46.2112 19.1305 45.1285 19.476 43.9369C19.8215 42.7453 19.9993 41.4682 19.9993 40.1784C19.9993 39.3856 19.9993 38.8266 19.8206 38.4338C19.3968 37.4999 17.9644 37.4999 13.1245 37.4999C6.24979 37.4999 6.24979 37.4999 6.24979 40.1784C6.24979 42.7832 6.97409 45.2813 8.26336 47.1232C9.55262 48.9651 11.3012 49.9998 13.1245 49.9998ZM33.9676 10.7142H39.9986V32.1427H37.4987V14.2857H36.03L32.4764 40.5177L30.0214 39.8391L33.9676 10.7142ZM43.0585 46.3177C43.6229 46.1635 44.1604 45.8519 44.6405 45.4009C45.1206 44.9498 45.5338 44.3681 45.8565 43.6889C46.1791 43.0096 46.405 42.2463 46.5211 41.4423C46.6373 40.6384 46.6414 39.8097 46.5334 39.0034L48.9883 38.332C49.3311 40.8904 48.9484 43.5385 47.9245 45.6938C46.9006 47.8492 45.3193 49.3351 43.5285 49.8248C41.7377 50.3145 39.884 49.7678 38.3754 48.3051C36.8667 46.8423 35.8265 44.5832 35.4838 42.0248L37.9387 41.3534C38.0466 42.1597 38.2647 42.9277 38.5804 43.6135C38.8961 44.2994 39.3034 44.8896 39.7788 45.3506C40.2542 45.8116 40.7886 46.1343 41.3513 46.3002C41.914 46.4661 42.4942 46.4721 43.0585 46.3177V46.3177Z" fill="white"/>
<path fill-rule="evenodd" clip-rule="evenodd" d="M45.4622 33.5927C44.6386 32.7687 43.6754 32.2751 42.6729 32.1634C41.6705 32.0516 40.6654 32.3258 39.7623 32.9574C38.8592 33.589 38.0911 34.5549 37.538 35.7545C36.9849 36.9542 36.6671 38.3437 36.6175 39.7784L47.4196 37.057C47.0085 35.6619 46.33 34.4611 45.4622 33.5927V33.5927ZM40.8248 28.7445C42.6959 28.2734 44.6234 28.7539 46.2722 30.1026C47.921 31.4513 49.1868 33.5829 49.8495 36.1266C50.4195 38.3088 49.277 40.2159 47.9921 40.5373L36.9137 43.3302C35.63 43.6516 34.1001 42.4195 34.1113 40.0909C34.1251 37.3767 34.8043 34.7551 36.0309 32.6822C37.2574 30.6092 38.9537 29.2159 40.8248 28.7445V28.7445ZM21.2493 17.8571H9.99965C9.66815 17.8571 9.35021 18.0452 9.1158 18.3801C8.88139 18.715 8.7497 19.1692 8.7497 19.6428V23.2142H22.4992V19.6428C22.4992 19.1692 22.3675 18.715 22.1331 18.3801C21.8987 18.0452 21.5808 17.8571 21.2493 17.8571ZM9.99965 14.2856C9.00513 14.2856 8.05133 14.8501 7.3481 15.8547C6.64486 16.8594 6.24979 18.222 6.24979 19.6428V24.9999C6.24979 25.4735 6.38148 25.9277 6.61589 26.2626C6.8503 26.5975 7.16823 26.7856 7.49974 26.7856H23.7492C24.0807 26.7856 24.3986 26.5975 24.633 26.2626C24.8674 25.9277 24.9991 25.4735 24.9991 24.9999V19.6428C24.9991 18.222 24.6041 16.8594 23.9008 15.8547C23.1976 14.8501 22.2438 14.2856 21.2493 14.2856H9.99965Z" fill="white"/>
<path fill-rule="evenodd" clip-rule="evenodd" d="M21.2493 26.7856H12.6071C7.64098 26.7856 3.66737 31.491 2.7174 37.4999H21.1105C21.1599 37.5035 21.2088 37.4834 21.2493 37.4427V26.7856ZM12.6071 23.2142C5.6448 23.2142 0 30.8535 0 40.2784C0 40.7159 0.262491 41.0713 0.587479 41.0713H21.1105C22.568 41.0713 23.7492 39.4731 23.7492 37.4999V24.6428C23.7492 23.8535 23.2767 23.2142 22.6942 23.2142H12.6071V23.2142ZM38.7486 3.57142H36.2487C35.5857 3.57142 34.9498 3.94769 34.481 4.61746C34.0122 5.28723 33.7488 6.19564 33.7488 7.14283C33.7488 8.09003 34.0122 8.99844 34.481 9.66821C34.9498 10.338 35.5857 10.7143 36.2487 10.7143H38.7486V3.57142ZM36.2487 0C34.9227 0 33.651 0.752546 32.7133 2.09209C31.7757 3.43163 31.2489 5.24844 31.2489 7.14283C31.2489 9.03723 31.7757 10.854 32.7133 12.1936C33.651 13.5331 34.9227 14.2857 36.2487 14.2857H40.4798C40.9048 14.2857 41.2485 13.7928 41.2485 13.1875V1.09821C41.2485 0.806947 41.1676 0.527612 41.0234 0.321658C40.8792 0.115704 40.6837 0 40.4798 0H36.2487V0Z" fill="white"/>
<path d="M26.6816 1.78564L32.8376 3.33207L32.4039 6.84991L26.2491 5.30349L26.6816 1.78564Z" fill="white"/>
<path fill-rule="evenodd" clip-rule="evenodd" d="M34.9988 41.0712H19.9993V37.4998H34.9988V41.0712ZM32.4989 32.1427H21.2493V28.5713H32.4989V32.1427Z" fill="white"/>
</svg>
