<svg width="50" height="50" viewBox="0 0 50 50" fill="none" xmlns="http://www.w3.org/2000/svg">
<path d="M44.4444 0H8.33333C4.98333 0 0 1.9975 0 7.5V42.5C0 48.0025 4.98333 50 8.33333 50H50V45H8.36667C7.08333 44.97 5.55556 44.5125 5.55556 42.5C5.55556 42.2475 5.58056 42.0225 5.62222 41.8175C5.93333 40.38 7.24167 40.025 8.36389 40H47.2222C47.2722 40 47.3083 39.9775 47.3583 39.975H50V5C50 2.2425 47.5083 0 44.4444 0ZM44.4444 35H5.55556V7.5C5.55556 5.485 7.08333 5.03 8.33333 5H27.7778V22.5L33.3333 20L38.8889 22.5V5H44.4444V35Z" fill="white"/>
</svg>
