<svg width="50" height="50" viewBox="0 0 50 50" fill="none" xmlns="http://www.w3.org/2000/svg">
<path d="M12.5 4.54545C10.0136 4.54545 7.62903 5.98214 5.87087 8.53945C4.11272 11.0968 3.125 14.5652 3.125 18.1818V45.4545H21.875V18.1818C21.875 14.5652 20.8873 11.0968 19.1291 8.53945C17.371 5.98214 14.9864 4.54545 12.5 4.54545V4.54545ZM12.5 0H37.5C40.8152 0 43.9946 1.91558 46.3388 5.32533C48.683 8.73508 50 13.3597 50 18.1818V45.4545C50 46.6601 49.6708 47.8162 49.0847 48.6687C48.4987 49.5211 47.7038 50 46.875 50H3.125C2.2962 50 1.50134 49.5211 0.915291 48.6687C0.32924 47.8162 0 46.6601 0 45.4545V18.1818C0 13.3597 1.31696 8.73508 3.66117 5.32533C6.00537 1.91558 9.18479 0 12.5 0V0ZM20.7687 4.54545C22.1003 6.24989 23.1664 8.34792 23.8961 10.6995C24.6258 13.051 25.0021 15.6019 25 18.1818V45.4545H46.875V18.1818C46.875 14.5652 45.8873 11.0968 44.1291 8.53945C42.371 5.98214 39.9864 4.54545 37.5 4.54545H20.7687Z" fill="white"/>
<path d="M36.8531 25H28.125V20.4545H43.75C44.1644 20.4545 44.5618 20.694 44.8549 21.1202C45.1479 21.5464 45.3125 22.1245 45.3125 22.7273V27.2727C45.3125 27.8755 45.1479 28.4536 44.8549 28.8798C44.5618 29.306 44.1644 29.5454 43.75 29.5454H40.625C40.4197 29.546 40.2163 29.4876 40.0265 29.3738C39.8366 29.2599 39.6641 29.0927 39.5187 28.8818L36.8531 25V25ZM15.625 18.1818C15.625 20.6909 14.225 18.1818 12.5 18.1818C10.775 18.1818 9.375 20.6909 9.375 18.1818C9.375 16.9763 9.70424 15.8201 10.2903 14.9677C10.8763 14.1152 11.6712 13.6364 12.5 13.6364C13.3288 13.6364 14.1237 14.1152 14.7097 14.9677C15.2958 15.8201 15.625 16.9763 15.625 18.1818V18.1818Z" fill="white"/>
</svg>
