<svg version="1.1" id="Layer_1" xmlns="http://www.w3.org/2000/svg" xmlns:xlink="http://www.w3.org/1999/xlink" x="0px" y="0px"
	 width="100%" viewBox="0 0 500 500" enable-background="new 0 0 500 500" xml:space="preserve">
<path fill="#F1DBDC" opacity="1.000000" stroke="none" 
	d="
M266.000000,501.000000 
	C177.333359,501.000000 89.166710,501.000000 1.000047,501.000000 
	C1.000031,334.333405 1.000031,167.666794 1.000016,1.000137 
	C167.666565,1.000091 334.333130,1.000091 500.999756,1.000046 
	C500.999847,167.666519 500.999847,334.333038 500.999939,500.999786 
	C422.833344,501.000000 344.666656,501.000000 266.000000,501.000000 
M76.181763,238.830368 
	C76.420197,249.306381 75.931839,259.858734 77.022675,270.245239 
	C81.791069,315.647827 101.171494,354.078094 136.093094,383.323364 
	C191.213104,429.483887 253.438751,439.079742 319.652374,411.713501 
	C392.289062,381.692657 434.083679,305.598419 423.112671,227.551361 
	C416.652924,181.597382 395.128601,143.816879 358.789917,115.139061 
	C318.080292,83.011765 271.547333,70.914200 220.410187,80.033951 
	C163.418045,90.197884 121.733513,122.012337 94.666382,173.002563 
	C83.909378,193.267075 78.364182,215.124161 76.181763,238.830368 
z"/>
<path fill="#9B7576" opacity="1.000000" stroke="none" 
	d="
M76.221146,238.365585 
	C78.364182,215.124161 83.909378,193.267075 94.666382,173.002563 
	C121.733513,122.012337 163.418045,90.197884 220.410187,80.033951 
	C271.547333,70.914200 318.080292,83.011765 358.789917,115.139061 
	C395.128601,143.816879 416.652924,181.597382 423.112671,227.551361 
	C434.083679,305.598419 392.289062,381.692657 319.652374,411.713501 
	C253.438751,439.079742 191.213104,429.483887 136.093094,383.323364 
	C101.171494,354.078094 81.791069,315.647827 77.022675,270.245239 
	C75.931839,259.858734 76.420197,249.306381 76.221146,238.365585 
M402.088898,226.231461 
	C400.132446,217.804398 398.175995,209.377350 396.165222,200.159271 
	C388.869263,176.940720 376.606873,156.779373 358.719513,139.307159 
	C328.398529,109.403580 291.656677,94.724281 249.357986,94.426659 
	C221.126495,94.228004 194.706070,101.975182 170.546127,116.622360 
	C150.784302,128.603134 134.155304,144.011459 121.355789,164.245880 
	C112.655731,177.301163 106.169388,191.289032 102.642570,205.453690 
	C109.187683,192.514648 116.134247,178.781967 123.600914,164.638306 
	C133.261261,150.304184 144.814484,137.600540 158.944580,127.734169 
	C209.275055,92.590836 262.554230,87.708511 318.382538,113.542351 
	C333.627960,120.596977 346.530487,131.104446 359.094360,142.911743 
	C365.629547,151.183060 372.247650,159.391510 378.616882,167.788681 
	C379.657471,169.160553 379.600128,171.365189 379.235016,172.955353 
	C375.742950,173.260300 371.903381,175.508820 369.292053,170.952179 
	C368.975189,170.399292 367.134155,170.034760 366.664246,170.411667 
	C365.918060,171.010208 365.304932,172.344879 365.388763,173.302200 
	C365.652435,176.312943 366.267120,179.292938 366.834747,182.839844 
	C368.816071,181.754898 370.460632,180.854370 371.862183,180.086899 
	C373.340363,181.671112 374.673767,183.100189 375.821198,184.329956 
	C377.756775,180.855835 379.386200,177.931229 381.513641,174.627502 
	C382.735840,175.905533 384.396362,176.978622 385.106018,178.496338 
	C388.582092,185.930664 391.804993,193.483398 395.180908,201.748215 
	C397.133575,210.138870 399.086212,218.529526 401.104797,227.757858 
	C401.878174,234.366806 402.651520,240.975754 403.424866,247.584702 
	C403.815277,247.539261 404.205688,247.493835 404.596100,247.448395 
	C403.800110,240.670578 403.004120,233.892761 402.088898,226.231461 
M318.998535,353.999939 
	C318.998535,353.999939 319.017883,353.955383 318.432495,354.433411 
	C314.670380,362.901062 319.456696,370.003204 329.609894,369.902069 
	C331.722961,367.558167 333.836060,365.214264 336.018738,362.058197 
	C335.930817,353.094147 331.472107,349.190521 321.986176,350.383057 
	C321.338074,351.205933 320.689972,352.028778 319.532166,353.087921 
	C319.342102,353.402557 319.152039,353.717224 318.998535,353.999939 
M245.573654,385.056885 
	C245.687332,381.775970 248.556473,377.330017 243.048370,376.682434 
	C242.629227,382.787689 242.224594,388.681641 241.734589,395.819153 
	C243.078278,395.724030 244.956589,395.591064 246.909149,394.698822 
	C246.319427,393.799316 245.729706,392.899780 245.059540,391.199677 
	C245.140442,390.133636 245.221344,389.067596 245.851669,387.854767 
	C245.744522,387.175323 245.637390,386.495850 245.573654,385.056885 
M348.262329,353.105743 
	C345.023224,350.476685 340.911652,348.379608 338.865234,345.023346 
	C337.594208,342.938812 339.452789,338.946045 339.906708,335.809753 
	C339.689606,335.634308 339.472534,335.458862 339.255432,335.283417 
	C338.163391,337.599670 337.071381,339.915924 335.875854,342.451660 
	C334.895660,342.451660 333.421692,342.451660 332.454285,342.451660 
	C336.730713,347.193909 340.979584,351.905609 345.486145,356.903076 
	C346.812073,355.420532 347.894379,354.210388 349.054565,352.876740 
	C349.054565,352.876740 349.099579,352.828766 349.099579,352.828766 
	C349.099579,352.828766 349.017273,353.041107 348.262329,353.105743 
M256.959778,405.478577 
	C256.959778,405.478577 257.011993,405.964996 257.105988,406.672760 
	C258.044128,407.351013 259.514069,408.799744 259.832428,408.580017 
	C261.626099,407.342010 264.648468,405.493439 264.473999,404.239655 
	C263.934692,400.364532 266.342072,399.230591 268.657440,397.496918 
	C270.546692,396.082367 270.852478,393.531494 269.987579,391.178162 
	C270.547760,389.490997 271.401886,387.840057 271.614868,386.110138 
	C272.350769,380.133301 269.453400,376.355713 263.401947,376.002960 
	C262.619354,375.536713 261.863251,375.016266 261.047577,374.617798 
	C260.013763,374.112701 258.931519,373.706665 257.870148,373.257904 
	C257.530182,374.350616 257.190186,375.443359 256.261841,376.426117 
	C255.230682,376.928101 254.199539,377.430115 252.429184,378.117859 
	C252.226990,379.821198 251.701569,381.565735 251.911789,383.216553 
	C252.130020,384.930267 252.884201,386.650238 253.730911,388.187439 
	C254.501099,389.585632 255.710129,390.742065 256.883942,392.839630 
	C257.185059,395.559845 257.486145,398.280090 257.164917,401.174713 
	C257.103058,402.446411 257.041199,403.718079 256.959778,405.478577 
M190.687469,376.063202 
	C192.268387,379.768036 193.849289,383.472900 195.430206,387.177734 
	C196.119766,386.886993 196.809326,386.596222 197.498886,386.305481 
	C195.548294,381.919128 193.597717,377.532776 191.835678,372.393768 
	C193.823883,367.130280 195.812088,361.866760 197.800293,356.603271 
	C197.101089,356.350830 196.401886,356.098419 195.702682,355.845978 
	C191.903854,364.619385 188.105026,373.392761 184.183762,382.448944 
	C185.000488,382.804108 186.290817,383.365234 187.461609,383.874359 
	C188.344879,381.036957 189.151352,378.446259 190.687469,376.063202 
M214.173248,373.961823 
	C208.961136,374.386414 207.337662,378.375305 206.755905,382.463379 
	C206.383026,385.083649 207.642502,387.936157 208.170227,390.684570 
	C208.551300,390.568909 208.932388,390.453247 209.313461,390.337585 
	C209.452789,387.517303 209.592133,384.697021 210.576874,381.959778 
	C212.979874,382.453003 215.398880,383.380920 217.780441,383.293121 
	C219.489685,383.230103 221.878128,382.236145 222.662445,380.895966 
	C223.893616,378.792328 224.027710,376.046570 224.991684,372.063324 
	C221.178925,375.244049 217.808456,370.629547 214.173248,373.961823 
M166.243607,365.002380 
	C164.313141,365.750580 162.382675,366.498779 159.157486,367.748779 
	C163.419067,370.340546 166.336502,372.114838 169.967041,373.896118 
	C171.437042,374.895538 172.907028,375.894928 174.443634,376.939636 
	C176.959671,372.808411 179.524353,368.991852 181.636292,364.939362 
	C182.506073,363.270355 184.387817,360.432526 179.499191,359.835144 
	C177.009369,361.867340 172.638443,359.980316 171.057129,363.745636 
	C170.139175,365.931427 169.607697,368.279480 168.902313,370.554535 
	C168.549194,370.611633 168.196060,370.668762 167.842926,370.725861 
	C167.561951,368.817230 167.280975,366.908630 167.229370,364.903046 
	C167.229370,364.903046 167.245865,364.596436 167.245865,364.596436 
	C167.245865,364.596436 167.000000,365.000000 166.243607,365.002380 
M351.879028,335.830505 
	C354.151520,332.947266 356.636749,330.199188 358.595245,327.116455 
	C359.416046,325.824524 359.120422,323.823242 359.332336,322.144470 
	C357.738983,322.220306 356.146240,322.320007 354.552002,322.361633 
	C353.795166,322.381409 352.975372,322.462799 352.286560,322.222565 
	C346.969208,320.368195 346.408722,320.706665 345.958130,326.944885 
	C344.368958,332.515564 345.537720,336.296600 350.183014,339.353851 
	C353.399139,341.470551 356.844635,343.214996 359.554535,340.189026 
	C356.866516,338.832428 354.060028,337.416016 351.879028,335.830505 
M368.134521,284.072327 
	C368.134521,284.072327 368.212036,284.112946 368.212036,284.112946 
	C368.212036,284.112946 367.954742,284.020508 367.846497,283.229462 
	C369.328217,279.772522 371.256287,276.376099 368.882385,272.510529 
	C368.666595,272.159180 368.908478,271.236877 369.250488,270.876434 
	C374.133759,265.730743 370.716919,259.508636 371.534210,253.329727 
	C367.746735,254.675110 364.231476,256.168823 361.588837,258.607941 
	C353.878876,265.724030 354.091675,265.783997 345.990997,258.778839 
	C343.108124,256.285828 340.177429,253.225342 334.871857,254.699738 
	C336.056763,260.844696 337.194366,266.744293 338.763000,274.879181 
	C337.196686,279.114105 338.672699,282.201172 346.531158,285.946655 
	C348.487610,282.631470 350.472473,279.268158 352.839966,275.256531 
	C353.055237,278.547791 353.225677,281.153778 353.396149,283.759796 
	C353.940674,283.748718 354.485199,283.737671 355.029724,283.726624 
	C355.029724,281.096161 355.029724,278.465729 355.029724,275.835297 
	C357.058624,277.482513 357.955048,279.247559 359.015320,280.907959 
	C360.141724,282.671967 361.423553,284.336761 362.382355,285.685822 
	C364.692780,284.982422 366.345856,284.479156 368.134521,284.072327 
M269.976715,147.230179 
	C269.854340,145.849319 269.731934,144.468460 269.609558,143.087601 
	C269.083160,142.880951 268.556793,142.674316 268.030396,142.467667 
	C266.899597,144.163361 265.254822,145.711731 264.719879,147.578201 
	C260.687378,161.648132 256.757233,175.750214 253.046753,189.908218 
	C251.527298,195.706055 250.629959,201.666931 249.449600,207.553635 
	C248.791153,202.921677 249.472107,198.389236 249.097565,193.945755 
	C247.939240,180.203354 246.439911,166.487930 244.889557,152.782776 
	C244.715302,151.242477 243.369339,149.834702 242.566727,148.365479 
	C241.940201,150.001862 240.655396,151.696472 240.794113,153.265182 
	C241.687576,163.369659 243.356369,173.421265 243.909393,183.537292 
	C245.684433,216.007111 239.671005,247.517700 230.938370,278.554657 
	C228.203873,288.273376 224.164413,297.636658 220.449661,307.055115 
	C219.894089,308.463776 217.809967,310.153320 216.481476,310.113068 
	C215.267868,310.076263 213.536407,308.062256 213.050095,306.584900 
	C211.441605,301.698517 209.605133,296.731873 209.081741,291.669342 
	C206.157837,263.387329 203.746933,235.052307 200.828339,206.769699 
	C199.739853,196.221786 197.903900,185.739395 196.020264,175.297211 
	C195.723740,173.653336 193.291290,171.166031 191.963104,171.237488 
	C190.167023,171.334091 187.904999,173.185745 186.888947,174.903259 
	C185.399216,177.421402 184.520279,180.423203 183.927414,183.330322 
	C178.979080,207.594162 173.287262,231.751282 169.564178,256.206177 
	C166.465698,276.558411 164.577438,297.233215 167.091156,317.925110 
	C167.268860,319.387939 168.639221,320.705902 169.455002,322.091217 
	C170.226807,320.646637 171.623032,319.214844 171.652863,317.755096 
	C171.740891,313.444824 171.029922,309.119934 171.088318,304.806976 
	C171.563431,269.707001 176.898972,235.233017 184.757065,201.104095 
	C186.322723,194.304184 188.217346,187.580017 189.960266,180.820923 
	C190.394333,180.872787 190.828415,180.924667 191.262482,180.976547 
	C191.830750,185.398529 192.551392,189.807068 192.942352,194.244675 
	C195.335815,221.412018 197.101303,248.650513 200.260544,275.727081 
	C201.592865,287.145721 205.089920,298.482849 208.946198,309.381775 
	C212.033035,318.106018 219.472366,318.441040 223.901917,310.320312 
	C227.691086,303.373596 230.496841,295.808594 233.025314,288.277924 
	C235.866531,279.815887 237.908691,271.085510 240.298492,262.471893 
	C240.846237,262.392853 241.393997,262.313843 241.941742,262.234802 
	C242.410309,263.965668 243.177673,265.675629 243.300262,267.430664 
	C244.297302,281.703583 245.071457,295.993225 246.226059,310.252441 
	C246.358963,311.893860 248.407166,313.380157 249.567352,314.938385 
	C250.224747,313.267548 251.482681,311.583160 251.445282,309.928040 
	C251.122253,295.628540 250.506836,281.335785 250.138199,267.036926 
	C250.077728,264.690979 250.797104,262.324951 251.274582,259.190002 
	C254.539902,260.640533 257.199158,261.326660 259.256409,262.834259 
	C264.212341,266.466034 268.919464,270.442291 273.667847,274.351410 
	C285.609192,284.182190 297.476074,294.104248 309.492371,303.842163 
	C311.005646,305.068512 313.236420,305.409515 315.134766,306.160706 
	C315.457001,305.634247 315.779205,305.107788 316.101440,304.581360 
	C315.148407,303.369934 314.356537,301.975037 313.217804,300.975037 
	C299.712952,289.115570 286.299164,277.144867 272.535400,265.591858 
	C267.755524,261.579712 262.359985,258.037598 256.728058,255.376068 
	C250.778259,252.564331 250.229980,252.674042 252.052322,246.281860 
	C252.505280,244.693054 253.213470,243.161896 253.934433,241.666962 
	C261.559021,225.856766 270.226868,210.666412 282.178528,197.684006 
	C291.499237,187.559448 300.642944,177.113617 313.330475,171.671219 
	C311.489990,173.567245 309.649536,175.463272 307.809052,177.359283 
	C308.051239,177.703979 308.293427,178.048660 308.535614,178.393341 
	C311.519623,177.916840 314.503632,177.440323 317.007660,177.040451 
	C318.273102,177.980759 319.757996,179.824417 320.656372,179.572937 
	C321.909424,179.222137 322.816956,177.367477 323.702637,176.042892 
	C324.800049,174.401642 325.723907,172.644318 327.145721,170.214142 
	C327.041931,169.666840 326.740082,168.074875 326.405579,166.310760 
	C324.884033,166.435699 323.634979,166.538254 322.879883,166.600266 
	C321.240875,163.697968 319.781372,161.113480 318.321838,158.528992 
	C317.860657,158.591095 317.399445,158.653214 316.938263,158.715317 
	C316.938263,161.531799 316.729523,164.368164 316.995392,167.159317 
	C317.276855,170.113754 316.795624,171.867691 313.692810,170.212738 
	C314.837952,166.093826 312.558563,165.421021 309.375824,166.223999 
	C307.822662,166.615860 306.368774,167.630646 305.023010,168.580338 
	C285.963959,182.029877 270.825806,199.060638 259.009979,219.111435 
	C257.698273,221.337341 256.386047,223.562973 255.074066,225.788727 
	C255.213791,218.362198 256.095062,211.319290 257.609863,204.415375 
	C261.595428,186.250916 265.856537,168.146912 270.625122,150.361420 
	C273.449310,151.549652 276.273499,152.737885 278.260529,153.573898 
	C279.912292,150.669449 280.965698,148.817169 282.264893,146.532639 
	C280.541901,144.893524 278.474640,142.926895 275.851105,140.431091 
	C274.662048,144.631409 276.358490,150.009262 269.976715,147.230179 
M336.006226,232.640991 
	C334.026703,232.126587 331.984955,231.777954 330.080719,231.063019 
	C326.210602,229.610016 322.420685,227.829849 318.331024,230.365280 
	C321.722778,240.524155 323.031586,241.742310 330.458191,241.847458 
	C330.928589,243.528534 331.394623,245.193970 332.329987,248.536667 
	C334.576172,245.823776 336.058594,244.344391 337.160126,242.621506 
	C338.438477,240.622025 339.408722,239.330063 342.247528,240.586655 
	C344.015778,241.369370 346.412598,240.732086 349.649414,240.732086 
	C347.845673,237.845764 346.992462,236.480453 346.152527,235.136414 
	C351.031494,230.201324 351.034882,225.820267 345.944183,218.115158 
	C344.704193,219.211502 343.155121,220.061020 342.377502,221.369141 
	C340.294220,224.873657 338.541504,228.574661 336.006226,232.640991 
M356.828308,215.499222 
	C360.858459,218.008209 364.783386,218.079193 368.579895,214.990005 
	C367.609497,212.069519 366.639130,209.149017 365.668701,206.228943 
	C370.301056,202.624710 370.241486,202.643005 368.469238,196.874222 
	C368.179016,195.929550 368.533142,194.699997 368.841522,193.678177 
	C369.340668,192.024155 370.048706,190.433151 370.668549,188.815552 
	C370.278595,188.453293 369.888641,188.091049 369.498688,187.728806 
	C366.246002,189.977951 362.993317,192.227112 359.207458,194.844925 
	C358.693237,191.666901 358.187347,188.540482 357.629761,185.094666 
	C349.874542,190.436264 351.088379,205.644089 356.828308,215.499222 
M343.190338,198.184921 
	C338.940887,196.751770 335.168823,195.064026 332.685120,190.686447 
	C331.544769,188.676529 328.011414,188.024307 325.563293,186.756393 
	C325.310638,189.721176 324.153168,192.983856 325.009064,195.583679 
	C326.432800,199.908340 325.531036,201.678146 321.380463,203.451508 
	C318.921051,204.502335 317.368042,207.674698 315.407440,209.893112 
	C318.391663,210.828857 321.321991,212.048416 324.373871,212.627625 
	C328.089233,213.332779 331.906921,213.498978 336.344757,213.968613 
	C335.419495,211.605484 334.050232,208.560486 333.106293,205.388901 
	C332.861542,204.566711 334.305176,202.419159 334.371735,202.444763 
	C338.501617,204.032806 339.990143,199.902344 343.190338,198.184921 
M367.446350,221.875671 
	C365.070801,225.880112 362.695221,229.884552 360.403015,233.748489 
	C362.982025,237.074753 365.389465,240.179733 368.058014,243.621475 
	C372.682495,242.543198 377.736664,241.364716 382.790833,240.186249 
	C382.822968,239.430283 382.855103,238.674332 382.887238,237.918381 
	C380.806030,236.918167 378.774139,235.210007 376.633636,235.060883 
	C371.743225,234.720169 369.975464,232.963928 370.885590,227.892639 
	C371.261780,225.796600 372.769135,221.932129 367.446350,221.875671 
M348.976715,167.563202 
	C347.961670,165.149002 346.946625,162.734818 345.931580,160.320618 
	C345.485962,160.348114 345.040375,160.375610 344.594757,160.403107 
	C344.096191,162.894760 343.174622,165.390945 343.201385,167.876953 
	C343.238556,171.330338 342.478912,173.392563 338.724579,174.385071 
	C336.352051,175.012314 334.363739,177.092972 332.203094,178.521729 
	C332.424896,178.900620 332.646667,179.279495 332.868469,179.658386 
	C336.058838,179.658386 339.249176,179.658386 341.677185,179.658386 
	C343.077393,180.953735 344.540283,182.944168 345.113953,182.714417 
	C346.636230,182.104736 347.866516,180.619797 349.040924,179.326813 
	C350.346375,177.889572 351.461731,176.279648 353.199768,174.053223 
	C353.199768,173.403137 353.199768,171.626266 353.199768,169.939514 
	C351.675842,169.351089 350.377075,168.849609 348.976715,167.563202 
M293.522858,154.222305 
	C291.623383,157.473740 288.863892,160.871552 292.469330,164.412277 
	C295.859406,167.741516 303.784149,165.928360 308.950439,159.144333 
	C306.553986,158.257675 304.285736,157.418472 302.658752,156.816513 
	C302.221771,154.069946 301.863068,151.815567 301.504395,149.561172 
	C299.245056,150.696060 296.980896,151.821579 294.732452,152.977692 
	C294.450836,153.122482 294.252197,153.428619 293.522858,154.222305 
M330.376648,145.379776 
	C329.246613,144.953522 328.116608,144.527267 327.009979,144.109833 
	C323.241669,150.115860 323.387115,155.466446 327.468933,158.878494 
	C331.046509,161.869019 333.373505,158.902908 334.738953,158.014816 
	C335.297729,152.838516 335.728119,148.851791 336.255463,143.966904 
	C334.509369,144.324677 332.762329,144.682648 330.376648,145.379776 
M376.347961,209.911514 
	C379.156128,211.751740 381.964264,213.591965 384.772430,215.432190 
	C385.712830,215.157867 386.653198,214.883560 387.593597,214.609238 
	C380.887970,208.771423 384.469513,204.307083 387.894867,199.416092 
	C385.000183,199.355530 382.738342,199.878220 380.473755,200.388840 
	C375.396271,201.533722 378.066162,206.470230 376.347961,209.911514 
M284.183777,365.186920 
	C283.536102,372.326752 285.273529,374.095612 292.904999,374.065948 
	C301.070221,374.034210 302.410645,375.347473 302.524811,383.085602 
	C303.703186,381.411469 304.870483,379.463531 304.694336,377.645782 
	C304.334106,373.929260 301.698639,371.367249 298.072662,371.395447 
	C292.220154,371.440918 286.792419,371.466614 284.183777,365.186920 
M161.540512,353.024689 
	C158.460266,355.970612 155.380005,358.916534 152.255569,361.904694 
	C152.762054,362.298767 153.763168,363.077667 154.035492,363.289551 
	C160.867599,356.976898 167.400604,350.940552 173.933624,344.904236 
	C173.684372,344.319489 173.435104,343.734741 173.185852,343.149963 
	C171.592911,343.591125 169.530899,343.555603 168.501083,344.569000 
	C166.082092,346.949371 164.156555,349.831177 161.540512,353.024689 
M310.701691,375.954163 
	C312.918549,378.494476 315.385284,378.591125 318.425781,376.794525 
	C313.734314,375.676056 313.734344,375.676056 309.616028,368.322083 
	C304.823059,359.763336 304.823059,359.763336 301.115753,358.600708 
	C304.488281,364.760620 307.384125,370.049774 310.701691,375.954163 
M157.013245,328.110748 
	C156.428772,327.565826 155.844299,327.020905 155.541916,326.738983 
	C153.389725,334.907867 151.248337,343.035828 148.718918,352.636627 
	C150.608047,351.184265 151.942520,350.695374 152.219925,349.856781 
	C153.862228,344.891693 155.357239,339.871307 156.689575,334.813599 
	C157.206802,332.850159 157.170151,330.740814 157.013245,328.110748 
M275.577911,127.196297 
	C273.676514,128.100540 271.775085,129.004776 268.902252,130.371002 
	C271.108246,131.851044 272.975800,133.837097 275.159882,134.287201 
	C276.417694,134.546432 279.179352,132.549469 279.498840,131.161682 
	C280.001373,128.978561 279.014893,126.452652 278.658844,124.071877 
	C278.212097,124.085152 277.765350,124.098427 277.318604,124.111710 
	C276.835663,124.903435 276.352753,125.695160 275.577911,127.196297 
M232.380508,395.086304 
	C234.113129,395.428558 235.845734,395.770782 237.578354,396.113037 
	C233.502625,395.013458 232.668701,392.185120 232.878494,388.546875 
	C233.059525,385.407562 233.337509,382.231079 233.023499,379.126587 
	C232.894684,377.853027 231.324326,376.725250 229.850708,374.801331 
	C230.074402,377.928345 230.144943,379.368042 230.285858,380.800812 
	C230.740860,385.427826 231.221741,390.052307 232.380508,395.086304 
M358.479126,151.386169 
	C358.006226,150.706985 357.432190,149.393692 357.076691,149.450409 
	C354.571564,149.849960 352.111389,150.531296 348.686432,151.349762 
	C350.033234,153.098175 351.213593,156.130539 352.899017,156.443588 
	C355.067261,156.846329 358.736511,156.330978 358.479126,151.386169 
M290.150909,143.183334 
	C296.586304,143.037781 297.204346,142.404877 296.556824,137.076828 
	C293.806305,137.347549 291.075073,137.616364 287.738525,137.944748 
	C288.371857,139.492554 289.015930,141.066605 290.150909,143.183334 
M277.181549,118.360573 
	C278.349518,119.353539 279.811066,121.353165 280.620636,121.117088 
	C282.038696,120.703598 283.056763,118.918282 284.242401,117.707695 
	C283.973114,117.361984 283.703857,117.016281 283.434601,116.670578 
	C281.426727,117.000542 279.418884,117.330498 277.181549,118.360573 
M176.417557,377.583252 
	C176.417557,377.583252 176.342316,377.487915 176.417557,377.583252 
M252.488861,392.554474 
	C252.488861,392.554474 252.451599,392.480865 252.488861,392.554474 
z"/>
<path fill="#EFD6D6" opacity="1.000000" stroke="none" 
	d="
M270.007874,150.018829 
	C265.856537,168.146912 261.595428,186.250916 257.609863,204.415375 
	C256.095062,211.319290 255.213791,218.362198 255.074066,225.788727 
	C256.386047,223.562973 257.698273,221.337341 259.009979,219.111435 
	C270.825806,199.060638 285.963959,182.029877 305.023010,168.580338 
	C306.368774,167.630646 307.822662,166.615860 309.375824,166.223999 
	C312.558563,165.421021 314.837952,166.093826 313.526611,170.591248 
	C313.360413,170.969772 313.385437,170.930557 313.385437,170.930557 
	C300.642944,177.113617 291.499237,187.559448 282.178528,197.684006 
	C270.226868,210.666412 261.559021,225.856766 253.934433,241.666962 
	C253.213470,243.161896 252.505280,244.693054 252.052322,246.281860 
	C250.229980,252.674042 250.778259,252.564331 256.728058,255.376068 
	C262.359985,258.037598 267.755524,261.579712 272.535400,265.591858 
	C286.299164,277.144867 299.712952,289.115570 313.217804,300.975037 
	C314.356537,301.975037 315.148407,303.369934 316.101440,304.581360 
	C315.779205,305.107788 315.457001,305.634247 315.134766,306.160706 
	C313.236420,305.409515 311.005646,305.068512 309.492371,303.842163 
	C297.476074,294.104248 285.609192,284.182190 273.667847,274.351410 
	C268.919464,270.442291 264.212341,266.466034 259.256409,262.834259 
	C257.199158,261.326660 254.539902,260.640533 251.274582,259.190002 
	C250.797104,262.324951 250.077728,264.690979 250.138199,267.036926 
	C250.506836,281.335785 251.122253,295.628540 251.445282,309.928040 
	C251.482681,311.583160 250.224747,313.267548 249.567352,314.938385 
	C248.407166,313.380157 246.358963,311.893860 246.226059,310.252441 
	C245.071457,295.993225 244.297302,281.703583 243.300262,267.430664 
	C243.177673,265.675629 242.410309,263.965668 241.941742,262.234802 
	C241.393997,262.313843 240.846237,262.392853 240.298492,262.471893 
	C237.908691,271.085510 235.866531,279.815887 233.025314,288.277924 
	C230.496841,295.808594 227.691086,303.373596 223.901917,310.320312 
	C219.472366,318.441040 212.033035,318.106018 208.946198,309.381775 
	C205.089920,298.482849 201.592865,287.145721 200.260544,275.727081 
	C197.101303,248.650513 195.335815,221.412018 192.942352,194.244675 
	C192.551392,189.807068 191.830750,185.398529 191.262482,180.976547 
	C190.828415,180.924667 190.394333,180.872787 189.960266,180.820923 
	C188.217346,187.580017 186.322723,194.304184 184.757065,201.104095 
	C176.898972,235.233017 171.563431,269.707001 171.088318,304.806976 
	C171.029922,309.119934 171.740891,313.444824 171.652863,317.755096 
	C171.623032,319.214844 170.226807,320.646637 169.455002,322.091217 
	C168.639221,320.705902 167.268860,319.387939 167.091156,317.925110 
	C164.577438,297.233215 166.465698,276.558411 169.564178,256.206177 
	C173.287262,231.751282 178.979080,207.594162 183.927414,183.330322 
	C184.520279,180.423203 185.399216,177.421402 186.888947,174.903259 
	C187.904999,173.185745 190.167023,171.334091 191.963104,171.237488 
	C193.291290,171.166031 195.723740,173.653336 196.020264,175.297211 
	C197.903900,185.739395 199.739853,196.221786 200.828339,206.769699 
	C203.746933,235.052307 206.157837,263.387329 209.081741,291.669342 
	C209.605133,296.731873 211.441605,301.698517 213.050095,306.584900 
	C213.536407,308.062256 215.267868,310.076263 216.481476,310.113068 
	C217.809967,310.153320 219.894089,308.463776 220.449661,307.055115 
	C224.164413,297.636658 228.203873,288.273376 230.938370,278.554657 
	C239.671005,247.517700 245.684433,216.007111 243.909393,183.537292 
	C243.356369,173.421265 241.687576,163.369659 240.794113,153.265182 
	C240.655396,151.696472 241.940201,150.001862 242.566727,148.365479 
	C243.369339,149.834702 244.715302,151.242477 244.889557,152.782776 
	C246.439911,166.487930 247.939240,180.203354 249.097565,193.945755 
	C249.472107,198.389236 248.791153,202.921677 249.449600,207.553635 
	C250.629959,201.666931 251.527298,195.706055 253.046753,189.908218 
	C256.757233,175.750214 260.687378,161.648132 264.719879,147.578201 
	C265.254822,145.711731 266.899597,144.163361 268.030396,142.467667 
	C268.556793,142.674316 269.083160,142.880951 269.609558,143.087601 
	C269.731934,144.468460 269.854340,145.849319 269.964752,147.975403 
	C269.971161,149.153366 269.989532,149.586090 270.007874,150.018829 
z"/>
<path fill="#EED0CE" opacity="1.000000" stroke="none" 
	d="
M121.874695,163.806229 
	C134.155304,144.011459 150.784302,128.603134 170.546127,116.622360 
	C194.706070,101.975182 221.126495,94.228004 249.357986,94.426659 
	C291.656677,94.724281 328.398529,109.403580 358.865448,139.995651 
	C358.970764,141.223831 358.930145,141.763535 358.889526,142.303223 
	C346.530487,131.104446 333.627960,120.596977 318.382538,113.542351 
	C262.554230,87.708511 209.275055,92.590836 158.944580,127.734169 
	C144.814484,137.600540 133.261261,150.304184 123.090958,164.688568 
	C122.345566,164.427979 122.110130,164.117096 121.874695,163.806229 
z"/>
<path fill="#ECD5D4" opacity="1.000000" stroke="none" 
	d="
M367.998932,283.975891 
	C366.345856,284.479156 364.692780,284.982422 362.382355,285.685822 
	C361.423553,284.336761 360.141724,282.671967 359.015320,280.907959 
	C357.955048,279.247559 357.058624,277.482513 355.029724,275.835297 
	C355.029724,278.465729 355.029724,281.096161 355.029724,283.726624 
	C354.485199,283.737671 353.940674,283.748718 353.396149,283.759796 
	C353.225677,281.153778 353.055237,278.547791 352.839966,275.256531 
	C350.472473,279.268158 348.487610,282.631470 346.531158,285.946655 
	C338.672699,282.201172 337.196686,279.114105 338.763000,274.879181 
	C337.194366,266.744293 336.056763,260.844696 334.871857,254.699738 
	C340.177429,253.225342 343.108124,256.285828 345.990997,258.778839 
	C354.091675,265.783997 353.878876,265.724030 361.588837,258.607941 
	C364.231476,256.168823 367.746735,254.675110 371.534210,253.329727 
	C370.716919,259.508636 374.133759,265.730743 369.250488,270.876434 
	C368.908478,271.236877 368.666595,272.159180 368.882385,272.510529 
	C371.256287,276.376099 369.328217,279.772522 367.915802,283.617249 
	C367.985107,284.005035 367.998932,283.975891 367.998932,283.975891 
z"/>
<path fill="#ECD5D4" opacity="1.000000" stroke="none" 
	d="
M336.331848,232.419312 
	C338.541504,228.574661 340.294220,224.873657 342.377502,221.369141 
	C343.155121,220.061020 344.704193,219.211502 345.944183,218.115158 
	C351.034882,225.820267 351.031494,230.201324 346.152527,235.136414 
	C346.992462,236.480453 347.845673,237.845764 349.649414,240.732086 
	C346.412598,240.732086 344.015778,241.369370 342.247528,240.586655 
	C339.408722,239.330063 338.438477,240.622025 337.160126,242.621506 
	C336.058594,244.344391 334.576172,245.823776 332.329987,248.536667 
	C331.394623,245.193970 330.928589,243.528534 330.458191,241.847458 
	C323.031586,241.742310 321.722778,240.524155 318.331024,230.365280 
	C322.420685,227.829849 326.210602,229.610016 330.080719,231.063019 
	C331.984955,231.777954 334.026703,232.126587 336.331848,232.419312 
z"/>
<path fill="#ECD5D4" opacity="1.000000" stroke="none" 
	d="
M356.450714,215.436249 
	C351.088379,205.644089 349.874542,190.436264 357.629761,185.094666 
	C358.187347,188.540482 358.693237,191.666901 359.207458,194.844925 
	C362.993317,192.227112 366.246002,189.977951 369.498688,187.728806 
	C369.888641,188.091049 370.278595,188.453293 370.668549,188.815552 
	C370.048706,190.433151 369.340668,192.024155 368.841522,193.678177 
	C368.533142,194.699997 368.179016,195.929550 368.469238,196.874222 
	C370.241486,202.643005 370.301056,202.624710 365.668701,206.228729 
	C366.639130,209.149017 367.609497,212.069519 368.575958,214.991180 
	C364.783386,218.079193 360.858459,218.008209 356.450714,215.436249 
z"/>
<path fill="#ECD5D4" opacity="1.000000" stroke="none" 
	d="
M342.973389,198.421417 
	C339.990143,199.902344 338.501617,204.032806 334.371735,202.444763 
	C334.305176,202.419159 332.861542,204.566711 333.106293,205.388901 
	C334.050232,208.560486 335.419495,211.605484 336.344757,213.968613 
	C331.906921,213.498978 328.089233,213.332779 324.373871,212.627625 
	C321.321991,212.048416 318.391663,210.828857 315.407440,209.893127 
	C317.368042,207.674698 318.921051,204.502335 321.380463,203.451508 
	C325.531036,201.678146 326.432800,199.908340 325.009064,195.583679 
	C324.153168,192.983856 325.310638,189.721176 325.563293,186.756378 
	C328.011414,188.024307 331.544769,188.676529 332.685120,190.686447 
	C335.168823,195.064026 338.940887,196.751770 342.973389,198.421417 
z"/>
<path fill="#9C7979" opacity="1.000000" stroke="none" 
	d="
M269.742554,391.891022 
	C270.852478,393.531494 270.546692,396.082367 268.657440,397.496918 
	C266.342072,399.230591 263.934692,400.364532 264.473999,404.239655 
	C264.648468,405.493439 261.626099,407.342010 259.832428,408.580017 
	C259.514069,408.799744 258.044128,407.351013 257.454376,406.278961 
	C260.894287,405.965210 261.168304,404.141785 260.831482,401.660034 
	C260.080811,396.128906 259.558777,390.565704 258.749573,385.044006 
	C258.329407,382.176849 257.496613,379.370117 256.850220,376.536102 
	C257.190186,375.443359 257.530182,374.350616 257.870178,373.257904 
	C258.931519,373.706665 260.013763,374.112701 261.047577,374.617798 
	C261.863251,375.016266 262.619354,375.536713 263.941284,376.326172 
	C268.683777,379.509369 270.068451,383.798218 268.254852,389.449829 
	C267.676788,391.251221 267.315765,392.232086 269.742554,391.891022 
z"/>
<path fill="#EBD2D1" opacity="1.000000" stroke="none" 
	d="
M367.767395,221.685455 
	C372.769135,221.932129 371.261780,225.796600 370.885590,227.892639 
	C369.975464,232.963928 371.743225,234.720169 376.633636,235.060883 
	C378.774139,235.210007 380.806030,236.918167 382.887238,237.918381 
	C382.855103,238.674332 382.822968,239.430283 382.790833,240.186249 
	C377.736664,241.364716 372.682495,242.543198 368.058014,243.621475 
	C365.389465,240.179733 362.982025,237.074753 360.403015,233.748489 
	C362.695221,229.884552 365.070801,225.880112 367.767395,221.685455 
z"/>
<path fill="#E8CFCD" opacity="1.000000" stroke="none" 
	d="
M349.027496,167.955658 
	C350.377075,168.849609 351.675842,169.351089 353.199768,169.939514 
	C353.199768,171.626266 353.199768,173.403137 353.199768,174.053223 
	C351.461731,176.279648 350.346375,177.889572 349.040924,179.326813 
	C347.866516,180.619797 346.636230,182.104736 345.113953,182.714417 
	C344.540283,182.944168 343.077393,180.953735 341.677185,179.658386 
	C339.249176,179.658386 336.058838,179.658386 332.868469,179.658386 
	C332.646667,179.279495 332.424896,178.900620 332.203094,178.521729 
	C334.363739,177.092972 336.352051,175.012314 338.724579,174.385071 
	C342.478912,173.392563 343.238556,171.330338 343.201385,167.876953 
	C343.174622,165.390945 344.096191,162.894760 344.594757,160.403107 
	C345.040375,160.375610 345.485962,160.348114 345.931580,160.320618 
	C346.946625,162.734818 347.961670,165.149002 349.027496,167.955658 
z"/>
<path fill="#9C7979" opacity="1.000000" stroke="none" 
	d="
M335.949127,362.870361 
	C333.836060,365.214264 331.722961,367.558167 329.096527,369.645203 
	C322.163544,366.246704 317.979706,361.719330 319.017883,353.955383 
	C319.017883,353.955383 318.998535,353.999939 319.263489,353.942261 
	C319.699585,353.540253 319.870728,353.195953 320.041870,352.851654 
	C320.689972,352.028778 321.338074,351.205933 322.324646,350.674133 
	C329.253448,351.866486 333.148376,355.543823 334.323090,362.135559 
	C334.382050,362.466553 335.385468,362.629272 335.949127,362.870361 
z"/>
<path fill="#E8CFCD" opacity="1.000000" stroke="none" 
	d="
M313.357971,171.300888 
	C313.385437,170.930557 313.360413,170.969772 313.336823,170.968658 
	C316.795624,171.867691 317.276855,170.113754 316.995392,167.159317 
	C316.729523,164.368164 316.938263,161.531799 316.938263,158.715317 
	C317.399445,158.653214 317.860657,158.591095 318.321838,158.528992 
	C319.781372,161.113480 321.240875,163.697968 322.879883,166.600266 
	C323.634979,166.538254 324.884033,166.435699 326.405579,166.310760 
	C326.740082,168.074875 327.041931,169.666840 327.145721,170.214142 
	C325.723907,172.644318 324.800049,174.401642 323.702637,176.042892 
	C322.816956,177.367477 321.909424,179.222137 320.656372,179.572937 
	C319.757996,179.824417 318.273102,177.980759 317.007660,177.040451 
	C314.503632,177.440323 311.519623,177.916840 308.535614,178.393341 
	C308.293427,178.048660 308.051239,177.703979 307.809052,177.359283 
	C309.649536,175.463272 311.489990,173.567245 313.357971,171.300888 
z"/>
<path fill="#EBD2D1" opacity="1.000000" stroke="none" 
	d="
M293.768982,153.941147 
	C294.252197,153.428619 294.450836,153.122482 294.732452,152.977692 
	C296.980896,151.821579 299.245056,150.696060 301.504395,149.561188 
	C301.863068,151.815567 302.221771,154.069946 302.658752,156.816513 
	C304.285736,157.418472 306.553986,158.257675 308.950439,159.144333 
	C303.784149,165.928360 295.859406,167.741516 292.469330,164.412277 
	C288.863892,160.871552 291.623383,157.473740 293.768982,153.941147 
z"/>
<path fill="#E9CAC8" opacity="1.000000" stroke="none" 
	d="
M358.991943,142.607483 
	C358.930145,141.763535 358.970764,141.223831 359.033386,140.278961 
	C376.606873,156.779373 388.869263,176.940720 395.916504,200.568268 
	C395.484283,200.982941 395.300812,200.988617 395.117371,200.994293 
	C391.804993,193.483398 388.582092,185.930664 385.106018,178.496338 
	C384.396362,176.978622 382.735840,175.905533 381.045074,174.655487 
	C380.401093,174.183945 380.225647,173.684433 380.050201,173.184921 
	C379.600128,171.365189 379.657471,169.160553 378.616882,167.788681 
	C372.247650,159.391510 365.629547,151.183060 358.991943,142.607483 
z"/>
<path fill="#EBD2D1" opacity="1.000000" stroke="none" 
	d="
M330.695984,145.210205 
	C332.762329,144.682648 334.509369,144.324677 336.255463,143.966904 
	C335.728119,148.851791 335.297729,152.838516 334.738953,158.014816 
	C333.373505,158.902908 331.046509,161.869019 327.468933,158.878494 
	C323.387115,155.466446 323.241669,150.115860 327.009979,144.109833 
	C328.116608,144.527267 329.246613,144.953522 330.695984,145.210205 
z"/>
<path fill="#9C7979" opacity="1.000000" stroke="none" 
	d="
M346.066376,326.192474 
	C346.408722,320.706665 346.969208,320.368195 352.286560,322.222565 
	C352.975372,322.462799 353.795166,322.381409 354.552002,322.361633 
	C356.146240,322.320007 357.738983,322.220306 359.332336,322.144470 
	C359.120422,323.823242 359.416046,325.824524 358.595245,327.116455 
	C356.636749,330.199188 354.151520,332.947266 351.318207,335.645721 
	C349.193726,332.371460 347.630035,329.281952 346.066376,326.192474 
z"/>
<path fill="#E8CFCD" opacity="1.000000" stroke="none" 
	d="
M379.642609,173.070129 
	C380.225647,173.684433 380.401093,174.183945 380.796082,174.845047 
	C379.386200,177.931229 377.756775,180.855835 375.821198,184.329956 
	C374.673767,183.100189 373.340363,181.671112 371.862183,180.086899 
	C370.460632,180.854370 368.816071,181.754898 366.834747,182.839844 
	C366.267120,179.292938 365.652435,176.312943 365.388763,173.302200 
	C365.304932,172.344879 365.918060,171.010208 366.664246,170.411667 
	C367.134155,170.034760 368.975189,170.399292 369.292053,170.952179 
	C371.903381,175.508820 375.742950,173.260300 379.642609,173.070129 
z"/>
<path fill="#A48482" opacity="1.000000" stroke="none" 
	d="
M169.253922,373.889130 
	C166.336502,372.114838 163.419067,370.340546 159.157486,367.748779 
	C162.382675,366.498779 164.313141,365.750580 166.621796,365.001190 
	C167.280975,366.908630 167.561951,368.817230 167.842926,370.725861 
	C168.196060,370.668762 168.549194,370.611633 168.902313,370.554535 
	C169.607697,368.279480 170.139175,365.931427 171.057129,363.745636 
	C172.638443,359.980316 177.009369,361.867340 179.749710,360.308594 
	C177.681686,366.187073 176.365799,372.414124 169.253922,373.889130 
z"/>
<path fill="#E6C8C6" opacity="1.000000" stroke="none" 
	d="
M376.259094,209.541367 
	C378.066162,206.470230 375.396271,201.533722 380.473755,200.388840 
	C382.738342,199.878220 385.000183,199.355530 387.894867,199.416092 
	C384.469513,204.307083 380.887970,208.771423 387.593597,214.609238 
	C386.653198,214.883560 385.712830,215.157867 384.772430,215.432190 
	C381.964264,213.591965 379.156128,211.751740 376.259094,209.541367 
z"/>
<path fill="#A48482" opacity="1.000000" stroke="none" 
	d="
M214.919830,374.033264 
	C217.808456,370.629547 221.178925,375.244049 224.991684,372.063324 
	C224.027710,376.046570 223.893616,378.792328 222.662445,380.895966 
	C221.878128,382.236145 219.489685,383.230103 217.780441,383.293121 
	C215.398880,383.380920 212.979874,382.453003 210.295166,381.589722 
	C211.648926,378.824219 213.284378,376.428741 214.919830,374.033264 
z"/>
<path fill="#E6C8C6" opacity="1.000000" stroke="none" 
	d="
M121.615242,164.026062 
	C122.110130,164.117096 122.345566,164.427979 122.830917,164.894073 
	C116.134247,178.781967 109.187683,192.514648 102.642570,205.453690 
	C106.169388,191.289032 112.655731,177.301163 121.615242,164.026062 
z"/>
<path fill="#EACDCB" opacity="1.000000" stroke="none" 
	d="
M284.414856,364.877075 
	C286.792419,371.466614 292.220154,371.440918 298.072662,371.395447 
	C301.698639,371.367249 304.334106,373.929260 304.694336,377.645782 
	C304.870483,379.463531 303.703186,381.411469 302.524811,383.085602 
	C302.410645,375.347473 301.070221,374.034210 292.904999,374.065948 
	C285.273529,374.095612 283.536102,372.326752 284.414856,364.877075 
z"/>
<path fill="#EACDCB" opacity="1.000000" stroke="none" 
	d="
M189.957825,375.855560 
	C189.151352,378.446259 188.344879,381.036957 187.461609,383.874359 
	C186.290817,383.365234 185.000488,382.804108 184.183762,382.448944 
	C188.105026,373.392761 191.903854,364.619385 195.702682,355.845978 
	C196.401886,356.098419 197.101089,356.350830 197.800293,356.603271 
	C195.812088,361.866760 193.823883,367.130280 191.513519,372.912842 
	C190.780182,374.239777 190.369003,375.047668 189.957825,375.855560 
z"/>
<path fill="#EACDCB" opacity="1.000000" stroke="none" 
	d="
M256.556030,376.481110 
	C257.496613,379.370117 258.329407,382.176849 258.749573,385.044006 
	C259.558777,390.565704 260.080811,396.128906 260.831482,401.660034 
	C261.168304,404.141785 260.894287,405.965210 257.407379,405.925079 
	C257.011993,405.964996 256.959778,405.478577 257.280029,405.039673 
	C257.662628,403.400635 257.724945,402.200470 257.787231,401.000305 
	C257.486145,398.280090 257.185059,395.559845 256.821716,392.018555 
	C256.368958,388.144714 256.172943,385.048462 255.505112,382.057587 
	C255.175644,380.582062 253.974884,379.301117 253.168396,377.932129 
	C254.199539,377.430115 255.230682,376.928101 256.556030,376.481110 
z"/>
<path fill="#E9CAC8" opacity="1.000000" stroke="none" 
	d="
M161.785919,352.767365 
	C164.156555,349.831177 166.082092,346.949371 168.501083,344.569000 
	C169.530899,343.555603 171.592911,343.591125 173.185852,343.149963 
	C173.435104,343.734741 173.684372,344.319489 173.933624,344.904236 
	C167.400604,350.940552 160.867599,356.976898 154.035492,363.289551 
	C153.763168,363.077667 152.762054,362.298767 152.255569,361.904694 
	C155.380005,358.916534 158.460266,355.970612 161.785919,352.767365 
z"/>
<path fill="#E6C8C6" opacity="1.000000" stroke="none" 
	d="
M270.316528,150.190125 
	C269.989532,149.586090 269.971161,149.153366 269.960449,148.396179 
	C276.358490,150.009262 274.662048,144.631409 275.851105,140.431091 
	C278.474640,142.926895 280.541901,144.893524 282.264893,146.532639 
	C280.965698,148.817169 279.912292,150.669449 278.260529,153.573898 
	C276.273499,152.737885 273.449310,151.549652 270.316528,150.190125 
z"/>
<path fill="#EED0CE" opacity="1.000000" stroke="none" 
	d="
M348.976685,353.000244 
	C347.894379,354.210388 346.812073,355.420532 345.486145,356.903076 
	C340.979584,351.905609 336.730713,347.193909 332.454285,342.451660 
	C333.421692,342.451660 334.895660,342.451660 335.875854,342.451660 
	C337.071381,339.915924 338.163391,337.599670 339.255432,335.283417 
	C339.472534,335.458862 339.689606,335.634308 339.906708,335.809753 
	C339.452789,338.946045 337.594208,342.938812 338.865234,345.023346 
	C340.911652,348.379608 345.023224,350.476685 348.633118,353.059143 
	C349.003876,353.012543 348.976715,353.000244 348.976685,353.000244 
z"/>
<path fill="#E9CAC8" opacity="1.000000" stroke="none" 
	d="
M310.490814,375.646545 
	C307.384125,370.049774 304.488281,364.760620 301.115753,358.600708 
	C304.823059,359.763336 304.823059,359.763336 309.616028,368.322083 
	C313.734344,375.676056 313.734314,375.676056 318.425781,376.794525 
	C315.385284,378.591125 312.918549,378.494476 310.490814,375.646545 
z"/>
<path fill="#E9CAC8" opacity="1.000000" stroke="none" 
	d="
M157.199524,328.404358 
	C157.170151,330.740814 157.206802,332.850159 156.689575,334.813599 
	C155.357239,339.871307 153.862228,344.891693 152.219925,349.856781 
	C151.942520,350.695374 150.608047,351.184265 148.718918,352.636627 
	C151.248337,343.035828 153.389725,334.907867 155.541916,326.738983 
	C155.844299,327.020905 156.428772,327.565826 157.199524,328.404358 
z"/>
<path fill="#EACDCB" opacity="1.000000" stroke="none" 
	d="
M246.834900,395.458130 
	C244.956589,395.591064 243.078278,395.724030 241.734589,395.819153 
	C242.224594,388.681641 242.629227,382.787689 243.048370,376.682434 
	C248.556473,377.330017 245.687332,381.775970 245.439865,385.693848 
	C245.304810,386.887695 245.303543,387.444641 245.302261,388.001556 
	C245.221344,389.067596 245.140442,390.133636 245.037628,391.967865 
	C245.622116,393.643402 246.228500,394.550781 246.834900,395.458130 
z"/>
<path fill="#E6C8C6" opacity="1.000000" stroke="none" 
	d="
M275.723877,126.841599 
	C276.352753,125.695160 276.835663,124.903435 277.318604,124.111710 
	C277.765350,124.098427 278.212097,124.085152 278.658844,124.071877 
	C279.014893,126.452652 280.001373,128.978561 279.498840,131.161682 
	C279.179352,132.549469 276.417694,134.546432 275.159882,134.287201 
	C272.975800,133.837097 271.108246,131.851044 268.902252,130.371002 
	C271.775085,129.004776 273.676514,128.100540 275.723877,126.841599 
z"/>
<path fill="#E9CAC8" opacity="1.000000" stroke="none" 
	d="
M232.036591,394.882019 
	C231.221741,390.052307 230.740860,385.427826 230.285858,380.800812 
	C230.144943,379.368042 230.074402,377.928345 229.850708,374.801331 
	C231.324326,376.725250 232.894684,377.853027 233.023499,379.126587 
	C233.337509,382.231079 233.059525,385.407562 232.878494,388.546875 
	C232.668701,392.185120 233.502625,395.013458 237.578354,396.113037 
	C235.845734,395.770782 234.113129,395.428558 232.036591,394.882019 
z"/>
<path fill="#EACDCB" opacity="1.000000" stroke="none" 
	d="
M169.610474,373.892639 
	C176.365799,372.414124 177.681686,366.187073 180.037994,360.409027 
	C184.387817,360.432526 182.506073,363.270355 181.636292,364.939362 
	C179.524353,368.991852 176.959671,372.808411 174.443634,376.939636 
	C172.907028,375.894928 171.437042,374.895538 169.610474,373.892639 
z"/>
<path fill="#E6C8C6" opacity="1.000000" stroke="none" 
	d="
M346.012268,326.568665 
	C347.630035,329.281952 349.193726,332.371460 351.005432,335.730286 
	C354.060028,337.416016 356.866516,338.832428 359.554535,340.189026 
	C356.844635,343.214996 353.399139,341.470551 350.183014,339.353851 
	C345.537720,336.296600 344.368958,332.515564 346.012268,326.568665 
z"/>
<path fill="#E6C8C6" opacity="1.000000" stroke="none" 
	d="
M358.336517,151.744263 
	C358.736511,156.330978 355.067261,156.846329 352.899017,156.443588 
	C351.213593,156.130539 350.033234,153.098175 348.686432,151.349762 
	C352.111389,150.531296 354.571564,149.849960 357.076691,149.450409 
	C357.432190,149.393692 358.006226,150.706985 358.336517,151.744263 
z"/>
<path fill="#EED0CE" opacity="1.000000" stroke="none" 
	d="
M335.983948,362.464294 
	C335.385468,362.629272 334.382050,362.466553 334.323090,362.135559 
	C333.148376,355.543823 329.253448,351.866486 322.666687,350.668396 
	C331.472107,349.190521 335.930817,353.094147 335.983948,362.464294 
z"/>
<path fill="#E6C8C6" opacity="1.000000" stroke="none" 
	d="
M289.905457,142.911987 
	C289.015930,141.066605 288.371857,139.492554 287.738525,137.944748 
	C291.075073,137.616364 293.806305,137.347549 296.556824,137.076828 
	C297.204346,142.404877 296.586304,143.037781 289.905457,142.911987 
z"/>
<path fill="#E9CAC8" opacity="1.000000" stroke="none" 
	d="
M318.725189,354.194397 
	C317.979706,361.719330 322.163544,366.246704 328.741669,369.677063 
	C319.456696,370.003204 314.670380,362.901062 318.725189,354.194397 
z"/>
<path fill="#EACDCB" opacity="1.000000" stroke="none" 
	d="
M214.546539,373.997559 
	C213.284378,376.428741 211.648926,378.824219 209.872467,381.548218 
	C209.592133,384.697021 209.452789,387.517303 209.313461,390.337585 
	C208.932388,390.453247 208.551300,390.568909 208.170227,390.684570 
	C207.642502,387.936157 206.383026,385.083649 206.755905,382.463379 
	C207.337662,378.375305 208.961136,374.386414 214.546539,373.997559 
z"/>
<path fill="#9C7979" opacity="1.000000" stroke="none" 
	d="
M252.798798,378.024994 
	C253.974884,379.301117 255.175644,380.582062 255.505112,382.057587 
	C256.172943,385.048462 256.368958,388.144714 256.742615,391.601318 
	C255.710129,390.742065 254.501099,389.585632 253.730911,388.187439 
	C252.884201,386.650238 252.130020,384.930267 251.911789,383.216553 
	C251.701569,381.565735 252.226990,379.821198 252.798798,378.024994 
z"/>
<path fill="#EED0CE" opacity="1.000000" stroke="none" 
	d="
M269.865051,391.534607 
	C267.315765,392.232086 267.676788,391.251221 268.254852,389.449829 
	C270.068451,383.798218 268.683777,379.509369 264.319092,376.352722 
	C269.453400,376.355713 272.350769,380.133301 271.614868,386.110138 
	C271.401886,387.840057 270.547760,389.490997 269.865051,391.534607 
z"/>
<path fill="#E6C8C6" opacity="1.000000" stroke="none" 
	d="
M395.149109,201.371246 
	C395.300812,200.988617 395.484283,200.982941 395.943665,200.963776 
	C398.175995,209.377350 400.132446,217.804398 401.853699,226.635223 
	C401.425323,226.999405 401.232117,226.959793 401.038879,226.920181 
	C399.086212,218.529526 397.133575,210.138870 395.149109,201.371246 
z"/>
<path fill="#E6C8C6" opacity="1.000000" stroke="none" 
	d="
M190.322647,375.959381 
	C190.369003,375.047668 190.780182,374.239777 191.419250,373.289154 
	C193.597717,377.532776 195.548294,381.919128 197.498886,386.305481 
	C196.809326,386.596222 196.119766,386.886993 195.430206,387.177734 
	C193.849289,383.472900 192.268387,379.768036 190.322647,375.959381 
z"/>
<path fill="#E6C8C6" opacity="1.000000" stroke="none" 
	d="
M277.296265,118.010513 
	C279.418884,117.330498 281.426727,117.000542 283.434601,116.670578 
	C283.703857,117.016281 283.973114,117.361984 284.242401,117.707695 
	C283.056763,118.918282 282.038696,120.703598 280.620636,121.117088 
	C279.811066,121.353165 278.349518,119.353539 277.296265,118.010513 
z"/>
<path fill="#A48482" opacity="1.000000" stroke="none" 
	d="
M401.071838,227.339020 
	C401.232117,226.959793 401.425323,226.999405 401.913330,227.076965 
	C403.004120,233.892761 403.800110,240.670578 404.596100,247.448395 
	C404.205688,247.493835 403.815277,247.539261 403.424866,247.584702 
	C402.651520,240.975754 401.878174,234.366806 401.071838,227.339020 
z"/>
<path fill="#9C7979" opacity="1.000000" stroke="none" 
	d="
M257.476074,401.087524 
	C257.724945,402.200470 257.662628,403.400635 257.289795,404.795288 
	C257.041199,403.718079 257.103058,402.446411 257.476074,401.087524 
z"/>
<path fill="#9C7979" opacity="1.000000" stroke="none" 
	d="
M246.872025,395.078491 
	C246.228500,394.550781 245.622116,393.643402 245.077850,392.368164 
	C245.729706,392.899780 246.319427,393.799316 246.872025,395.078491 
z"/>
<path fill="#9C7979" opacity="1.000000" stroke="none" 
	d="
M245.576965,387.928162 
	C245.303543,387.444641 245.304810,386.887695 245.418167,386.073608 
	C245.637390,386.495850 245.744522,387.175323 245.576965,387.928162 
z"/>
<path fill="#ECD5D4" opacity="1.000000" stroke="none" 
	d="
M367.969910,284.012756 
	C367.954742,284.020508 368.212036,284.112946 368.212036,284.112946 
	C368.212036,284.112946 368.134521,284.072327 368.066711,284.024109 
	C367.998932,283.975891 367.985107,284.005035 367.969910,284.012756 
z"/>
<path fill="#EACDCB" opacity="1.000000" stroke="none" 
	d="
M176.379944,377.535583 
	C176.342316,377.487915 176.417557,377.583252 176.379944,377.535583 
z"/>
<path fill="#A48482" opacity="1.000000" stroke="none" 
	d="
M167.114685,364.951538 
	C167.000000,365.000000 167.245865,364.596436 167.245865,364.596436 
	C167.245865,364.596436 167.229370,364.903046 167.114685,364.951538 
z"/>
<path fill="#9C7979" opacity="1.000000" stroke="none" 
	d="
M252.470230,392.517670 
	C252.451599,392.480865 252.488861,392.554474 252.470230,392.517670 
z"/>
<path fill="#EED0CE" opacity="1.000000" stroke="none" 
	d="
M349.010559,353.026825 
	C349.017273,353.041107 349.099579,352.828766 349.099579,352.828766 
	C349.099579,352.828766 349.054565,352.876740 349.015625,352.938477 
	C348.976715,353.000244 349.003876,353.012543 349.010559,353.026825 
z"/>
<path fill="#E9CAC8" opacity="1.000000" stroke="none" 
	d="
M319.787018,352.969788 
	C319.870728,353.195953 319.699585,353.540253 319.245209,353.958221 
	C319.152039,353.717224 319.342102,353.402557 319.787018,352.969788 
z"/>
</svg>