<svg width="60" height="60" viewBox="0 0 60 60" fill="none" xmlns="http://www.w3.org/2000/svg">
<path d="M21.275 50.0001H21.075C17.0459 49.9648 13.075 49.034 9.44998 47.2751C8.78317 46.9618 8.23413 46.4434 7.88324 45.7956C7.53236 45.1478 7.39805 44.4047 7.49998 43.6751C7.61085 42.9405 7.95095 42.2597 8.47175 41.7299C8.99255 41.2001 9.66741 40.8485 10.4 40.7251C12.6465 40.4253 14.8077 39.6681 16.75 38.5001C13.3779 35.8636 10.7819 32.364 9.23703 28.3721C7.6922 24.3802 7.25611 20.0447 7.97498 15.8251C8.07245 15.1567 8.3599 14.5304 8.8031 14.0207C9.24631 13.511 9.82663 13.1394 10.475 12.9501C11.1058 12.7519 11.7809 12.7435 12.4164 12.9257C13.052 13.1079 13.62 13.4728 14.05 13.9751C15.51 15.8895 17.3447 17.4865 19.4422 18.6685C21.5398 19.8505 23.8561 20.5928 26.25 20.8501C26.3643 17.9047 27.6301 15.1218 29.775 13.1001C30.846 12.0745 32.1104 11.2723 33.4945 10.7403C34.8786 10.2083 36.3548 9.9571 37.837 10.0013C39.3192 10.0455 40.7778 10.3843 42.1277 10.9978C43.4777 11.6114 44.692 12.4875 45.7 13.5751C45.9626 13.8072 46.2889 13.9552 46.6366 13.9998C46.9842 14.0443 47.3373 13.9835 47.65 13.8251C48.2461 13.5439 48.9098 13.4381 49.5638 13.5199C50.2177 13.6017 50.8349 13.8678 51.3433 14.2872C51.8518 14.7065 52.2305 15.2618 52.4353 15.8882C52.6401 16.5146 52.6625 17.1864 52.5 17.8251C51.9234 20.2003 50.8308 22.4195 49.3 24.3251C48.9626 31.4369 45.8271 38.127 40.5773 42.9366C35.3275 47.7462 28.3891 50.2852 21.275 50.0001V50.0001ZM21.275 45.0001H21.475C24.3817 45.1 27.2793 44.622 29.9998 43.5937C32.7204 42.5655 35.2097 41.0074 37.3236 39.0098C39.4374 37.0122 41.1337 34.6149 42.3141 31.9568C43.4945 29.2987 44.1355 26.4327 44.2 23.5251C44.2413 22.7282 44.5699 21.9733 45.125 21.4001C45.7347 20.6282 46.2548 19.7894 46.675 18.9001C45.7744 18.9018 44.8835 18.7134 44.0607 18.3472C43.2379 17.981 42.5016 17.4453 41.9 16.7751C41.3215 16.2014 40.6344 15.749 39.8788 15.4442C39.1233 15.1394 38.3146 14.9884 37.5 15.0001C36.6772 14.9788 35.8584 15.1202 35.0904 15.4162C34.3225 15.7123 33.6206 16.157 33.025 16.7251C32.2214 17.4876 31.6322 18.4477 31.3163 19.5095C31.0005 20.5712 30.969 21.6973 31.225 22.7751L31.875 25.6251L28.95 25.8251C25.9527 26.0695 22.9381 25.6595 20.115 24.6235C17.2919 23.5874 14.7277 21.9502 12.6 19.8251C12.5087 23.116 13.332 26.3679 14.9782 29.219C16.6245 32.0701 19.0292 34.4088 21.925 35.9751L24.3 37.3251L22.725 39.5751C21.0217 41.8089 18.6879 43.4808 16.025 44.3751C17.7333 44.8032 19.4889 45.0132 21.25 45.0001H21.275Z" fill="white"/>
</svg>
